<?xml version="1.0" standalone="no"?>
<!DOCTYPE svg PUBLIC "-//W3C//DTD SVG 20010904//EN"
 "http://www.w3.org/TR/2001/REC-SVG-20010904/DTD/svg10.dtd">
<svg version="1.0" xmlns="http://www.w3.org/2000/svg"
 width="400.000000pt" height="187.000000pt" viewBox="0 0 400.000000 187.000000"
 preserveAspectRatio="xMidYMid meet">
<metadata>
Created by potrace 1.16, written by Peter Selinger 2001-2019
</metadata>
<g transform="translate(0.000000,187.000000) scale(0.100000,-0.100000)"
fill="#000000" stroke="none">
<path d="M2520 1493 c0 -13 -3 -14 -11 -6 -9 9 -23 6 -55 -10 -36 -17 -43 -25
-38 -42 6 -20 6 -20 -10 0 -11 15 -15 16 -16 5 0 -8 4 -21 9 -29 8 -12 17 -11
55 10 25 13 46 27 46 31 0 4 7 5 15 2 11 -4 15 1 16 17 1 17 3 19 6 6 4 -14
15 -17 66 -16 34 1 70 -2 79 -6 10 -4 29 -8 43 -9 14 0 25 -4 25 -8 0 -4 10
-12 21 -19 17 -9 25 -8 37 4 20 21 8 51 -18 44 -13 -3 -20 0 -20 9 0 17 -12
18 -28 2 -9 -9 -12 -8 -12 4 0 9 -7 19 -16 22 -27 11 -82 6 -87 -6 -4 -10 -6
-10 -6 0 -1 8 -18 12 -51 12 -40 0 -50 -3 -50 -17z"/>
<path d="M1020 1171 c0 -117 1 -120 26 -140 30 -24 111 -29 147 -9 41 22 46
39 47 156 l0 112 -25 0 -25 0 0 -100 c0 -87 -3 -103 -20 -120 -25 -25 -62 -26
-83 -2 -14 15 -17 40 -17 120 l0 102 -25 0 -25 0 0 -119z"/>
<path d="M1290 1150 l0 -140 25 0 c24 0 24 2 27 88 l3 87 70 -87 c39 -48 76
-88 83 -88 9 0 12 35 12 140 l0 140 -25 0 c-24 0 -24 -2 -27 -85 l-3 -85 -69
85 c-39 47 -76 85 -83 85 -10 0 -13 -31 -13 -140z"/>
<path d="M1680 1150 l0 -140 25 0 c24 0 25 2 25 65 l0 65 55 0 c48 0 55 2 55
20 0 18 -7 20 -55 20 l-55 0 0 35 0 35 70 0 c63 0 70 2 70 20 0 19 -7 20 -95
20 l-95 0 0 -140z"/>
<path d="M1900 1150 l0 -140 25 0 c24 0 25 3 25 60 0 81 21 81 75 0 l40 -59
53 -1 c50 0 54 2 63 30 10 28 14 30 64 30 50 0 54 -2 64 -30 7 -23 16 -30 35
-30 15 0 26 4 26 9 0 24 -110 266 -121 268 -9 2 -34 -42 -69 -122 -30 -68 -58
-125 -62 -125 -3 0 -22 22 -41 49 -27 37 -32 51 -22 55 27 10 47 54 40 86 -9
42 -49 60 -130 60 l-65 0 0 -140z"/>
<path d="M2390 1150 l0 -140 25 0 c24 0 24 2 27 90 l3 90 70 -90 c39 -49 76
-89 83 -90 9 0 12 34 12 140 l0 140 -25 0 c-23 0 -24 -2 -27 -82 l-3 -82 -68
82 c-38 45 -75 82 -83 82 -11 0 -14 -26 -14 -140z"/>
<path d="M2650 1270 c0 -17 8 -19 64 -22 l63 -3 -63 -110 c-35 -60 -64 -113
-64 -117 0 -5 45 -8 100 -8 93 0 100 1 100 20 0 18 -7 20 -60 20 -33 0 -60 3
-60 7 0 3 27 52 60 109 33 56 60 107 60 113 0 7 -35 11 -100 11 -93 0 -100 -1
-100 -20z"/>
<path d="M2130 964 c-14 -3 -77 -11 -140 -20 -175 -24 -442 -80 -622 -131
-100 -28 -185 -47 -219 -47 -60 -1 -89 -17 -89 -47 0 -10 10 -23 21 -30 42
-22 129 -4 324 68 206 77 354 121 509 153 143 29 169 23 41 -10 -184 -47 -258
-81 -240 -110 9 -15 25 -13 117 16 96 31 154 38 453 59 121 8 253 19 293 25
40 6 117 12 170 13 108 2 128 17 42 30 -82 13 -421 1 -524 -18 -95 -17 -121
-16 -56 4 22 6 44 21 50 31 10 19 7 20 -47 19 -32 -1 -69 -3 -83 -5z"/>
<path d="M1210 520 c0 -22 -1 -22 -82 -20 l-58 1 0 -70 c0 -64 2 -71 19 -71
17 0 20 8 23 47 2 36 7 49 21 51 14 3 17 -4 17 -47 0 -48 1 -51 26 -51 25 0
26 2 22 55 -1 30 0 55 5 55 4 0 7 -19 7 -42 0 -24 4 -48 8 -55 9 -14 162 -16
179 -1 7 6 13 17 13 24 0 16 -31 19 -46 4 -7 -7 -17 -5 -30 5 -17 13 -15 14
34 15 51 0 52 0 52 -30 0 -23 4 -30 20 -30 16 0 20 7 20 31 0 38 16 69 35 69
11 0 15 -13 15 -50 0 -47 2 -50 25 -50 23 0 25 3 25 51 0 43 3 50 18 47 13 -2
18 -15 20 -51 3 -39 6 -47 23 -47 17 0 19 7 19 59 0 37 -5 63 -14 70 -8 7 -51
11 -110 10 l-96 -1 0 -27 c-1 -24 -1 -25 -12 -6 -6 11 -16 23 -22 27 -17 12
-71 9 -84 -4 -9 -9 -12 -9 -12 0 0 7 -7 12 -15 12 -8 0 -15 9 -15 20 0 15 -7
20 -25 20 -18 0 -25 -5 -25 -20z"/>
<path d="M2770 520 c0 -22 -3 -23 -71 -20 -39 1 -50 -3 -63 -22 l-16 -22 0 22
c0 21 -4 22 -85 22 l-85 0 0 -70 0 -70 153 0 152 0 -3 55 c-3 34 0 55 7 55 5
0 11 -24 13 -52 3 -52 4 -53 36 -56 24 -3 32 1 32 13 0 15 1 15 16 1 24 -24
91 -21 104 5 15 27 5 35 -28 23 -29 -11 -52 -8 -52 7 0 5 20 9 45 9 41 0 45 2
45 23 0 52 -79 77 -115 37 -10 -11 -18 -33 -19 -50 -1 -42 -16 -38 -16 5 0 19
5 35 10 35 6 0 10 7 10 15 0 8 -4 15 -10 15 -5 0 -10 9 -10 20 0 15 -7 20 -25
20 -18 0 -25 -5 -25 -20z"/>
<path d="M1662 488 c-20 -20 -14 -38 13 -38 14 0 25 5 25 10 0 6 7 10 15 10
30 0 14 -18 -22 -27 -35 -8 -38 -12 -38 -43 l0 -35 63 -3 c59 -3 62 -2 62 20
l0 22 16 -22 c18 -27 84 -31 108 -6 15 14 16 14 16 0 0 -10 9 -16 25 -16 19 0
25 5 25 22 l0 22 16 -22 c11 -16 25 -22 52 -22 42 0 54 6 70 35 11 19 11 18
12 -7 0 -23 4 -28 25 -28 23 0 25 3 25 50 0 36 4 50 14 50 17 0 26 -22 26 -66
0 -27 4 -34 20 -34 12 0 20 7 20 18 1 16 1 16 11 0 8 -14 23 -18 69 -18 l60 0
0 51 c0 73 -12 89 -63 89 -43 0 -67 -13 -67 -37 0 -17 47 -17 53 0 3 9 7 9 17
0 10 -9 5 -13 -24 -18 -20 -4 -41 -15 -46 -24 -7 -12 -9 -8 -10 20 0 47 -14
58 -78 57 -51 0 -52 0 -53 -31 0 -31 0 -32 -10 -7 -6 13 -15 28 -22 32 -23 15
-77 8 -97 -12 l-20 -20 0 20 c0 15 -7 20 -25 20 -17 0 -25 -6 -25 -17 0 -15
-1 -15 -18 0 -25 23 -78 21 -102 -3 -19 -19 -20 -19 -30 0 -8 15 -21 20 -53
20 -24 0 -48 -5 -55 -12z"/>
</g>
</svg>
